<?xml version="1.0" encoding="UTF-8"?>
<svg id="Layer_2" data-name="Layer 2" xmlns="http://www.w3.org/2000/svg" viewBox="0 0 356.85 247.72">
  <defs>
    <style>
      .cls-1 {
        fill: #231f20;
        stroke-width: 0px;
      }
    </style>
  </defs>
  <g>
    <path class="cls-1" d="m131.39,56.68c11.9,1.37,20.32-6.44,25.49-12.5s6.97-16.53,4.18-23.65c-2.39-6.1-6.52-11.78-12.32-14.87-5.45-2.91-12.48-3.2-17.68.14-2.65,1.7-4.71,4.21-7.39,5.84-3.89,2.36-8.65,2.64-13.19,3.01-13.11,1.06-26.11,3.36-38.79,6.86-4.29,1.19-8.61,2.54-12.33,4.98-6.07,3.99-9.99,10.47-13.38,16.9-6.82,12.91-12.47,27.64-9.13,41.86,3.16,13.45,13.88,23.87,25.47,31.38,11.79,7.63,24.93,13.08,36.31,21.31,4.64,3.36,8.46,7.72,11.43,12.63,3.97,6.56,17.54,25.79,5.16,35.48-2.51,1.97-4.53,4.45-7.2,6.19-4.85,3.17-9.71,6.33-14.56,9.5-2.95,1.92-6.03,3.9-9.52,4.34-3.18.4-6.39-.52-9.36-1.75-14.49-5.99-31.41-40.93-33.79-56.43-1.25-8.16-.34-16.83-4.78-24.13-2.17-3.57-5.72-6.18-9.87-6.66-5.95-.7-8.92,3.16-11.33,7C-.03,147.9-.76,178.85,8.95,205.16c4.88,13.21,12.75,26.04,25.03,32.94,7.02,3.95,15.08,5.72,23.09,6.53,17.79,1.8,35.7-.91,53.37-3.68,8.99-1.41,18.12-2.89,26.38-6.71,16.64-7.7,27.94-24.45,32.2-42.28,4.27-17.83,2.21-36.65-2.36-54.4-1.73-6.71-3.85-13.41-7.51-19.3-5.47-8.77-14.01-15.16-22.73-20.71-10.23-6.51-20.99-12.18-32.14-16.93-6.99-2.98-14.3-5.7-19.92-10.81s-11.11-14.51-6.36-20.44c7.79-9.73,12.21-9.58,21.52-10.28,4.57-.34,6.97.05,8.99.75,7.32,2.53,13.96,6.7,19.07,12.51l3.8,4.32s0,0,0,0Z"/>
    <path class="cls-1" d="m131.39,59.18c8.68.93,16.63-2.85,22.89-8.64,2.66-2.46,5.28-5.23,7.01-8.43,2.03-3.75,3.14-7.95,3.46-12.19.65-8.59-3.46-17.27-9.84-22.95-6.9-6.15-17.82-8.57-25.78-2.88-1.9,1.36-3.52,3.03-5.36,4.46s-3.98,2.26-6.27,2.76-4.66.64-7.01.83c-2.72.22-5.43.49-8.14.82-10.79,1.3-21.49,3.37-31.96,6.32-4.77,1.34-9.59,2.98-13.59,5.98s-6.8,6.52-9.34,10.52-4.81,8.43-6.84,12.81c-2.18,4.71-4.1,9.56-5.41,14.58-2.5,9.56-2.6,19.66,1.28,28.87,3.44,8.17,9.39,15.04,16.19,20.61,7.57,6.21,16.16,10.87,24.74,15.5,4.47,2.41,8.94,4.83,13.27,7.49s8.18,5.22,11.55,8.73c2.65,2.76,4.7,5.88,6.72,9.11,1.55,2.48,3.08,4.97,4.44,7.56,1.56,2.95,2.84,5.83,3.7,9.08.79,2.98,1.1,6,.23,8.85-.38,1.26-1.09,2.56-2,3.58-1.42,1.59-3.22,2.85-4.77,4.31-3.86,3.65-8.5,6.29-12.94,9.19-2.28,1.48-4.54,3-6.83,4.45-1.9,1.2-3.86,2.35-6.06,2.89-2.38.59-4.8.15-7.1-.59-.59-.19-1.16-.4-1.74-.62-.15-.06-1.04-.45-.42-.17-.12-.06-.25-.11-.37-.17-.54-.27-1.08-.56-1.6-.87-2.28-1.39-4.14-3.1-6.16-5.27-2.26-2.41-4.18-4.9-6.05-7.6-4.28-6.19-7.9-12.84-11.02-19.68-2.64-5.79-5-11.84-6.45-18.07-1.95-8.41-.77-17.32-4.36-25.37-1.88-4.22-5.08-7.69-9.4-9.42-4.02-1.62-8.77-1.35-12.29,1.3-3.3,2.48-5.42,6.32-7.37,9.88-2.24,4.1-4.1,8.42-5.62,12.84-6.01,17.57-6.12,36.96-1.73,54.91,4.17,17.03,12.52,35.02,27.82,44.7,8.68,5.49,19.02,7.48,29.12,8.22,11.13.82,22.3-.02,33.35-1.43,5.6-.72,11.19-1.57,16.77-2.44,5.13-.8,10.27-1.6,15.32-2.81,9.17-2.2,17.6-6.08,24.79-12.23,13.79-11.79,21.19-29.38,23.09-47.14,1.13-10.6.33-21.31-1.5-31.78s-4.13-20.69-8.95-29.82c-4.53-8.58-11.82-15.15-19.66-20.66-8.41-5.91-17.44-11.02-26.65-15.56-4.64-2.29-9.38-4.37-14.15-6.37-4.34-1.82-8.7-3.69-12.64-6.29-3.49-2.3-6.5-5.29-8.65-8.88-1.7-2.83-3.38-6.76-1.87-9.93.87-1.84,2.61-3.45,4.04-4.86,1.23-1.22,2.42-2.22,3.9-3.08,2.34-1.36,5.23-1.92,7.9-2.16,3.58-.33,7.76-.86,11.02-.17,3.94.84,7.8,2.9,11.17,5.04s6.13,4.59,8.68,7.47c.72.82,1.45,1.64,2.17,2.46.57.65,1.21,1.68,2,2.09,2.85,1.48,5.38-2.83,2.52-4.32.89.46.39.26,0-.18l-1.31-1.49c-.65-.74-1.3-1.49-1.96-2.23-2.92-3.29-6.35-6.13-10.09-8.44-3.49-2.15-7.48-4.17-11.48-5.14s-7.81-.5-11.68-.18c-3.28.26-6.52.67-9.56,1.99-3.28,1.41-6.02,3.83-8.39,6.46-1.56,1.74-3.08,3.49-3.88,5.71-.69,1.92-.69,4-.39,6,.65,4.25,3.02,8.13,5.7,11.41,5.95,7.29,14.82,10.71,23.23,14.28,9.51,4.04,18.73,8.74,27.58,14.07,7.94,4.78,15.9,9.93,22.14,16.87,6.6,7.34,9.71,16.53,12.05,25.95,4.82,19.35,6.61,40.35-.31,59.44-5.66,15.61-17.25,29.29-33.19,34.84-9.72,3.38-20.2,4.57-30.34,6.07-10.73,1.59-21.55,2.85-32.41,2.79-10.03-.06-20.68-.95-29.92-5.16-7.79-3.55-14.07-9.51-18.79-16.58s-8.28-15.47-10.69-23.88-3.84-17.64-3.93-26.67,1.05-17.88,3.62-26.47c1.27-4.26,2.88-8.41,4.88-12.39,1.71-3.42,3.58-7.3,6.36-9.99,2.51-2.43,6.19-2.62,9.28-1.01,3.81,1.99,5.9,5.83,7,9.85,1.22,4.47,1.29,9.12,1.71,13.7.3,3.23.81,6.4,1.65,9.54,1.77,6.56,4.38,12.92,7.28,19.06,3.13,6.63,6.74,13.08,11,19.05,3.61,5.04,7.75,10.14,13.09,13.44,3.45,2.13,7.86,3.57,11.93,3.44,5.07-.16,9.28-3.04,13.38-5.72,4.59-3,9.37-5.83,13.82-9.04,1.99-1.44,3.69-3.19,5.51-4.83,1.52-1.37,3.06-2.53,4.31-4.18,4.3-5.69,3.33-13.31.96-19.58-2.12-5.64-5.28-10.69-8.42-15.8-2.41-3.94-5.27-7.61-8.7-10.71-3.62-3.27-7.83-5.91-12-8.41-15.7-9.39-34.2-16.34-45.5-31.5-5.37-7.21-8.21-15.56-7.75-24.59.51-9.89,4.42-19.36,8.89-28.07,4.11-8.01,8.8-16.05,17.41-19.79,4.63-2.02,9.72-3.16,14.62-4.33,5.15-1.23,10.34-2.27,15.56-3.11s10.36-1.44,15.57-1.86c4.86-.39,9.95-.71,14.26-3.24,3.84-2.25,6.47-6.18,10.89-7.46,3.9-1.13,8.27-.53,11.84,1.37s6.6,5.05,8.76,8.59c2.03,3.33,3.46,6.87,3.57,10.81s-.61,7.7-2.21,11.12c-1.48,3.17-3.77,5.72-6.28,8.12-5.47,5.25-12.22,8.55-19.93,7.72-1.34-.14-2.5,1.25-2.5,2.5,0,1.47,1.15,2.36,2.5,2.5Z"/>
  </g>
  <g>
    <path class="cls-1" d="m161.05,3.38c8.73,18.27,20.09,53.91,20.47,74.16.79,41.58,8.78,85.76-6.35,124.5-7.07,18.1-22.34,31.23-29.05,37.88,18.97.68,57.42-8.26,75.76-3.35-13.02-31.5-10.9-74.84-9.28-108.89,10.17,3.93,20.53,7.62,31.33,9.08s22.18.54,31.9-4.39c2.37-1.2,4.75-2.67,7.4-2.77,5.31-.2,9.35,5.36,9.65,10.67.3,5.31-2.73,18.37-4.69,23.32-5.66,14.34-8.61,29.75-8.67,45.17-.02,6.02.38,12.18-1.39,17.94-1.76,5.76-6.33,11.16-12.32,11.77,26.99,8.57,55.96-1.68,82.4-11.81,1.85-.71,3.81-1.5,4.98-3.1,1.76-2.42,1.13-5.77.48-8.69-14.9-66.75-30.08-60.65-16.89-152.96.1-.73,7.27-53.13,6.72-53.63-.52-.46-1.27-.52-1.96-.56-21.2-1.19-42.49-.98-63.66.63,1.73,12.22,3.46,24.45,5.19,36.67.27,1.89,1.74,47.05.91,48.77-.92,1.92-2.96,3-4.89,3.9-14.21,6.56-30,9.68-45.64,9-1.45-.06-2.96-.18-4.2-.94-2.58-1.58-4.11-48.28-4.14-51.31-.08-9.52-.15-19.04-.23-28.56,0-1.06-.06-2.24-.81-3-.58-.59-1.44-.77-2.24-.93-15.8-3.05-42.03-19.39-58.12-19.43"/>
    <path class="cls-1" d="m158.89,4.64c6.22,13.04,10.85,27.06,14.6,41.05,1.93,7.21,3.61,14.51,4.68,21.91s.94,15.12,1.29,22.66c.87,18.88,2.56,37.74,2.36,56.66s-2.27,37.14-9.06,54.45c-5.35,13.63-15.56,24.41-25.94,34.39-.82.79-1.65,1.58-2.46,2.39-1.58,1.57-.36,4.2,1.77,4.27,9.53.32,19.14-1.09,28.58-2.18,10.72-1.24,21.49-2.6,32.3-2.64,2.63-.01,5.26.06,7.88.3,2.12.19,4.04.48,6.33,1.08,1.66.44,3.83-1.23,3.08-3.08-5.29-12.87-7.87-26.72-9.18-40.51-1.39-14.7-1.41-29.51-.98-44.26.23-7.82.6-15.64.97-23.46l-3.16,2.41c13.3,5.13,27.15,9.91,41.59,9.8,6.58-.05,13.26-1.07,19.4-3.51,1.54-.61,3.06-1.29,4.54-2.05s2.83-1.56,4.39-2c2.33-.65,4.37.16,5.98,1.91,3.08,3.33,2.72,7.91,2.12,11.86-.74,4.85-1.84,9.7-3.32,14.39-.82,2.6-1.9,5.11-2.78,7.69-1.16,3.39-2.18,6.83-3.04,10.3-1.71,6.87-2.83,13.88-3.39,20.93-.32,4.04-.41,8.08-.38,12.12.03,3.77.13,7.62-.55,11.35-1,5.5-4.39,12.33-10.67,13.07-1.24.15-2.3.84-2.46,2.17-.15,1.25.58,2.36,1.79,2.74,18.13,5.68,37.4,3.16,55.34-1.97,9.12-2.61,18.03-5.88,26.88-9.26,3.99-1.52,8.31-3.14,9.25-7.85.78-3.93-.63-8.13-1.53-11.94-2.65-11.31-5.84-22.46-9.4-33.52-2.6-8.09-5.39-16.14-7.49-24.38-1.02-4-1.87-8.04-2.49-12.11-.08-.53-.16-1.05-.23-1.58-.02-.17-.11-.8-.04-.3-.04-.32-.08-.65-.13-.97-.14-1.11-.26-2.21-.37-3.32-.24-2.4-.41-4.81-.52-7.22-.6-12.78.29-25.61,1.59-38.32,1.07-10.48,2.55-20.91,3.97-31.34,1.27-9.4,2.53-18.81,3.74-28.21.56-4.39,1.12-8.77,1.64-13.16.26-2.23.75-4.62.67-6.88-.14-3.87-5.49-3.36-8.19-3.49-5.02-.24-10.03-.41-15.05-.49-10.04-.17-20.09-.03-30.12.42-4.93.22-9.86.52-14.79.9-1.77.13-2.65,1.48-2.41,3.16,1.15,8.15,2.31,16.3,3.46,24.45.64,4.52,1.53,8.94,1.74,13.11.33,6.59.5,13.2.68,19.8.21,7.59.43,15.18.37,22.77,0,1.05-.02,2.1-.07,3.14-.02.32-.06.65-.07.97-.01.47.17-.77.04-.31,0,.03-.01.07-.02.1.37-1.09.12-.24-.14.12-.78,1.05-2.14,1.65-3.28,2.2-1.7.81-3.44,1.54-5.2,2.23-3.4,1.33-6.87,2.46-10.39,3.4-7.28,1.95-14.76,3.04-22.29,3.24-1.82.05-3.65.05-5.47,0-.85-.02-1.72-.02-2.56-.12-.04,0-1.79-.49-1.75-.52.16-.13.84.9.68.65-.33-.49.06.21.07.21-.15-.05-.3-.95-.34-1.1-.28-1.11-.44-2.25-.61-3.39-.02-.14-.1-.73,0-.01-.02-.18-.05-.35-.07-.53-.05-.37-.09-.74-.13-1.11-.1-.88-.19-1.75-.28-2.63-.38-3.92-.66-7.86-.91-11.8-.49-7.83-.85-15.66-1.13-23.5-.33-9.2-.28-18.41-.35-27.62-.02-1.97-.03-3.94-.05-5.91s0-3.96-1.33-5.49c-1.77-2.03-5.13-2.11-7.59-2.82-5.09-1.47-10.02-3.5-14.9-5.57-10.65-4.51-21.39-9.91-32.81-12.17C168.45.34,166.08.02,163.71,0c-3.22-.03-3.22,4.97,0,5,4.83.04,9.67,1.41,14.44,3.01,5.62,1.89,11.09,4.21,16.53,6.54s10.98,4.78,16.6,6.86c2.43.89,4.88,1.72,7.39,2.37.53.14,1.06.26,1.6.38.5.11,1.56.11,1.94.43.17.14.14.28.16.55.07.97.03,1.96.04,2.94.08,10.34,0,20.69.34,31.03.26,7.7.6,15.39,1.07,23.08.43,7.17.68,14.56,2.1,21.63.19.95.42,1.94.88,2.79,1.15,2.12,4.12,2.42,6.26,2.54,7.62.43,15.35-.2,22.85-1.56s14.9-3.63,21.95-6.65c3.06-1.31,6.72-2.73,8.29-5.9.4-.81.45-1.69.5-2.58.37-6.52.02-13.13-.13-19.65-.18-7.72-.4-15.44-.71-23.16-.07-1.85-.11-3.72-.36-5.56-1.14-8.15-2.31-16.3-3.46-24.45-.57-3.99-1.13-7.99-1.7-11.98l-2.41,3.16c19.7-1.49,39.49-1.78,59.22-.86,1.15.05,2.3.11,3.45.17.21.01,1.27.2,1.35.08.13-.18-1.34-1.5-.88-1.88-.04.04,0,.57,0,.63-.05,1.01-.17,2.02-.28,3.03-.4,3.75-.87,7.49-1.34,11.22-.61,4.83-1.24,9.67-1.87,14.5-.32,2.43-.64,4.86-.97,7.29-.15,1.14-.3,2.28-.46,3.41-.04.29-.08.58-.12.87-.06.46.05-.34-.04.29-.07.51-.14,1.03-.21,1.54-1.15,8.53-2.39,17.05-3.44,25.59-1.7,13.83-3.07,27.76-3.06,41.71,0,9.39.75,18.79,2.59,28.01,1.59,7.93,4,15.66,6.5,23.34,3.1,9.55,6.17,19.09,8.78,28.79.83,3.08,1.62,6.16,2.37,9.26.81,3.34,1.83,6.75,2.27,10.16.21,1.59.23,3.45-1.06,4.6s-3.25,1.68-4.86,2.3c-4.34,1.66-8.7,3.29-13.09,4.82-17.13,6-35.35,10.98-53.66,9-4.28-.46-8.5-1.39-12.6-2.67l-.66,4.91c6.32-.75,11.23-5.24,13.73-10.96,2.99-6.86,2.43-14.42,2.48-21.72.11-14.82,2.96-29.57,8.32-43.39,1.75-4.52,2.9-9.28,3.82-14.03s2.1-10.24.33-14.97c-2.22-5.91-7.88-10.33-14.38-8.27-3.26,1.03-6.13,3.04-9.34,4.24s-6.51,2.02-9.87,2.5c-16.39,2.36-32.59-3.3-47.65-9.11-1.6-.62-3.09.94-3.16,2.41-.68,14.32-1.34,28.66-1.19,43s1.1,29.67,3.99,44.21c1.52,7.63,3.61,15.15,6.57,22.35l3.08-3.08c-9.26-2.44-19.36-1.7-28.79-.92-10.94.9-21.82,2.46-32.75,3.49-4.94.46-9.92.86-14.88.69l1.77,4.27c4.25-4.2,8.63-8.26,12.65-12.69,5.45-6.01,10.42-12.57,14.13-19.81,4.18-8.16,6.81-17.18,8.66-26.13s2.9-18.82,3.29-28.31c.79-19.19-.77-38.37-1.81-57.52-.26-4.78-.49-9.57-.65-14.35-.12-3.7-.13-7.39-.49-11.08-.72-7.35-2.17-14.62-3.91-21.79-3.63-14.92-8.47-29.68-14.65-43.74-.61-1.39-1.24-2.78-1.9-4.15-.58-1.22-2.33-1.54-3.42-.9-1.25.73-1.48,2.2-.9,3.42h0Z"/>
  </g>
</svg>